
<svg xmlns="http://www.w3.org/2000/svg" width="1600" height="700" viewBox="0 0 1600 700">
  <defs>
    <linearGradient id="bg" x1="0" x2="0" y1="0" y2="1">
      <stop offset="0" stop-color="#fff7ef"/>
      <stop offset="1" stop-color="#ffffff"/>
    </linearGradient>
  </defs>
  <rect width="100%" height="100%" fill="url(#bg)"/>
  <g transform="translate(80,70)">
    <text x="740" y="50" font-family="Segoe UI, Arial" font-size="36" fill="#333" text-anchor="end">Fresh blends, made for you</text>
    <!-- glasses row -->
    <g transform="translate(0,0)">
      <!-- glass 1 -->
      <g transform="translate(0,0)">
        <rect x="10" y="40" width="140" height="260" rx="18" fill="#fff" stroke="#eee"/>
        <rect x="30" y="60" width="100" height="220" rx="14" fill="#ffd27a"/>
      </g>
      <!-- glass 2 -->
      <g transform="translate(180,0)">
        <rect x="10" y="40" width="140" height="260" rx="18" fill="#fff" stroke="#eee"/>
        <rect x="30" y="60" width="100" height="220" rx="14" fill="#9be8a8"/>
      </g>
      <!-- glass 3 -->
      <g transform="translate(360,0)">
        <rect x="10" y="40" width="140" height="260" rx="18" fill="#fff" stroke="#eee"/>
        <rect x="30" y="60" width="100" height="220" rx="14" fill="#ff9ab8"/>
      </g>
      <!-- glass 4 -->
      <g transform="translate(540,0)">
        <rect x="10" y="40" width="140" height="260" rx="18" fill="#fff" stroke="#eee"/>
        <rect x="30" y="60" width="100" height="220" rx="14" fill="#d6b3ff"/>
      </g>
      <!-- glass 5 -->
      <g transform="translate(720,0)">
        <rect x="10" y="40" width="140" height="260" rx="18" fill="#fff" stroke="#eee"/>
        <rect x="30" y="60" width="100" height="220" rx="14" fill="#ffb37a"/>
      </g>
    </g>
  </g>
</svg>
